<?xml version="1.0" encoding="utf-8"?>
<!-- Generator: Adobe Illustrator 22.0.1, SVG Export Plug-In . SVG Version: 6.00 Build 0)  -->
<svg version="1.1" id="Calque_1" xmlns="http://www.w3.org/2000/svg" xmlns:xlink="http://www.w3.org/1999/xlink" x="0px" y="0px"
	 viewBox="0 0 218.1 143.3" style="enable-background:new 0 0 218.1 143.3;" xml:space="preserve">
<style type="text/css">
	.st0{clip-path:url(#SVGID_2_);fill:#BEFBE8;}
	.st1{clip-path:url(#SVGID_2_);fill:none;stroke:#2100B8;stroke-linecap:round;}
</style>
<g>
	<defs>
		<rect id="SVGID_1_" y="-0.3" width="217.7" height="143.7"/>
	</defs>
	<clipPath id="SVGID_2_">
		<use xlink:href="#SVGID_1_"  style="overflow:visible;"/>
	</clipPath>
	<path class="st0" d="M66.3,106.5c19.9,0,36.1-15.7,36.1-35.2S86.2,36.2,66.3,36.2S30.2,51.9,30.2,71.4S46.4,106.5,66.3,106.5"/>
	<path class="st1" d="M121.4,82.3c0-10.6,8.6-19.3,19.2-19.3c10.6,0,19.2,8.6,19.2,19.3s-8.6,19.3-19.2,19.3
		C130,101.6,121.4,93,121.4,82.3z M57.9,82.3c0-10.6,8.6-19.3,19.2-19.3s19.2,8.6,19.2,19.3s-8.6,19.3-19.2,19.3S57.9,93,57.9,82.3z
		 M77.1,82.3l11.7-27c0,0,3-5.1-0.4-6.5c-4-1.5-6-2.4-5.8-4.7c0.2-3.1,2.7-3,7.1-3h8.2 M116.7,47.4h17.6 M124.4,55.3H88.8
		 M87.5,58.4l21.9,20.8l31.2,3.2l-16.2-27 M129.1,47.4l-19.7,31.8"/>
</g>
</svg>
