<?xml version="1.0" encoding="UTF-8"?>
<svg width="66px" height="55px" viewBox="0 0 66 55" version="1.1" xmlns="http://www.w3.org/2000/svg" xmlns:xlink="http://www.w3.org/1999/xlink">
    <!-- Generator: Sketch 47.1 (45422) - http://www.bohemiancoding.com/sketch -->
    <title>icon/itinéraire</title>
    <desc>Created with Sketch.</desc>
    <defs></defs>
    <g id="Page-1" stroke="none" stroke-width="1" fill="none" fill-rule="evenodd">
        <g id="v1.4_trajet_choix" transform="translate(-133.000000, -182.000000)" stroke="#1D1D1D">
            <g id="itinéraire" transform="translate(60.000000, 120.000000)">
                <g id="icon/itinéraire" transform="translate(65.000000, 60.000000)">
                    <g id="Group" fill-rule="evenodd" transform="translate(8.600001, 27.400001)">
                        <path d="M32.9438363,2.77035009 C31.4407745,4.58337233 29.9044121,5.52098531 28.3277436,5.54010784 C26.0099665,5.56821887 24.2652034,4.59119057 23.0539033,3.12200616 L22.9442586,2.98901825 L22.9442586,2.81665891 C22.9442586,0.761982673 22.0746407,0.315743171 19.9531388,1.27552123 C16.3934969,3.90146947 13.3151685,5.63545298 10.7087701,6.47579026 C8.94779415,7.04355218 6.63147737,7.52968453 3.75614764,7.93658294 C3.69423518,7.9453444 3.63255193,7.9556555 3.57115593,7.96750655 C1.54088502,8.35940251 0.212717122,10.3229575 0.604605623,12.3532313 L0.983711671,14.3172423 C1.27065194,15.8037758 2.42462772,16.9711924 3.9077395,17.2753298 C6.18163239,17.7416226 8.62686347,17.9750486 11.2436499,17.9750486 C14.4547699,17.9750486 21.5527865,17.6245903 32.523909,16.9238098 C32.9761092,16.8949272 33.4170567,16.7705513 33.8176977,16.5588772 C35.3838202,15.7314342 35.9826383,13.7910659 35.1551953,12.2249433 L35.0418771,12.0104631 L35.1473454,11.7920158 C35.3334731,11.4065058 35.450646,10.4622595 35.4693448,9.01522983 C35.4832984,7.93542033 35.2514484,6.59384478 34.7700604,4.99573821 C34.4821086,4.0397987 33.8244418,3.23889411 32.9438363,2.77035009 Z" id="Rectangle-3" stroke-width="0.959999981" transform="translate(18.031672, 9.396759) scale(-1, 1) translate(-18.031672, -9.396759) "></path>
                        <path d="M20.6363005,4.80967832 L22.4331246,7.96543205" id="Line-3" stroke-width="1.91999996" stroke-linecap="round" transform="translate(21.692300, 6.921678) scale(-1, 1) translate(-21.692300, -6.921678) "></path>
                        <path d="M15.8416328,2.03729177 L19.2785311,5.91891654" id="Line-3-Copy" stroke-width="1.91999996" stroke-linecap="round" transform="translate(17.560082, 3.978104) scale(-1, 1) translate(-17.560082, -3.978104) "></path>
                        <path d="M1.36833374,12.0524804 C3.67337626,13.0318241 6.84096361,13.5824256 10.8710958,13.704285 C16.916294,13.887074 23.9009395,12.6303575 27.4435194,12.424246 C29.8052394,12.2868382 32.3527094,12.2868382 35.0859295,12.424246" id="Line-Copy-2" stroke-width="0.959999981" stroke-linecap="square" transform="translate(18.227132, 12.887435) scale(-1, 1) translate(-18.227132, -12.887435) "></path>
                    </g>
                    <path d="M72.5,24.5 L39.5,56.5" id="Line-4" stroke-linecap="square"></path>
                    <polyline id="Rectangle-4-Copy" transform="translate(67.857415, 29.022045) rotate(-270.000000) translate(-67.857415, -29.022045) " points="62.638831 34.2406285 62.638831 23.8034615 73.075998 23.8034615"></polyline>
                    <polygon id="Rectangle" fill="#97E4E9" fill-rule="evenodd" transform="translate(58.064042, 13.291410) scale(-1, 1) rotate(-180.000000) translate(-58.064042, -13.291410) " points="50.3640421 5.59141073 65.7640416 13.2914104 50.3640421 20.9914101"></polygon>
                    <path d="M50.3640421,2.29141085 L50.3640421,32.2406285" id="Line" transform="translate(50.364042, 17.266020) scale(-1, 1) translate(-50.364042, -17.266020) "></path>
                    <path d="M46.9300003,31.9914097 L57.9300003,31.9914097" id="Line-2" transform="translate(52.430000, 31.991410) scale(-1, 1) translate(-52.430000, -31.991410) "></path>
                </g>
            </g>
        </g>
    </g>
</svg>