<?xml version="1.0" encoding="UTF-8"?>
<svg width="51px" height="55px" viewBox="0 0 51 55" version="1.1" xmlns="http://www.w3.org/2000/svg" xmlns:xlink="http://www.w3.org/1999/xlink">
    <!-- Generator: Sketch 47.1 (45422) - http://www.bohemiancoding.com/sketch -->
    <title>icon/itinéraire copy</title>
    <desc>Created with Sketch.</desc>
    <defs></defs>
    <g id="Page-1" stroke="none" stroke-width="1" fill="none" fill-rule="evenodd">
        <g id="v1.4_trajet_choix" transform="translate(-329.000000, -182.000000)" stroke="#1D1D1D">
            <g id="itinéraire" transform="translate(60.000000, 120.000000)">
                <g id="icon/itinéraire-copy-2" transform="translate(255.000000, 60.000000)">
                    <g id="Group" transform="translate(40.080061, 30.399213) rotate(-54.000000) translate(-40.080061, -30.399213) translate(-20.919939, -31.100787)">
                        <g id="Group-2" transform="translate(60.834936, 61.785898) rotate(30.000000) translate(-60.834936, -61.785898) translate(16.334936, 17.285898)">
                            <g id="Group-4" transform="translate(44.176234, 44.629632) rotate(17.000000) translate(-44.176234, -44.629632) translate(9.176234, 9.129632)">
                                <path d="M34.905425,11.00843 C21.2971283,11.00843 10.2654241,22.0401342 10.2654241,35.6484309 C10.2654241,49.2567276 21.2971283,60.2884318 34.905425,60.2884318 L34.905425,60.2884318 C48.5137218,60.2884318 59.5454259,49.2567276 59.5454259,35.6484309" id="Oval" transform="translate(34.905425, 35.648431) rotate(-45.000000) translate(-34.905425, -35.648431) "></path>
                                <polyline id="Rectangle-4" transform="translate(55.199097, 23.066004) rotate(-345.000000) translate(-55.199097, -23.066004) " points="51.1990972 27.0660038 51.1990972 19.0660038 51.1990972 19.0660038 59.1990972 19.0660038"></polyline>
                            </g>
                        </g>
                    </g>
                    <g id="Group-3" transform="translate(24.000000, 2.235840)">
                        <polygon id="Rectangle" fill="#7BD4DA" points="4.0865652 4.47979711 23.1549653 14.0139971 4.0865652 23.5481972"></polygon>
                        <path d="M4.0865652,0.393711385 L4.0865652,42.6165972" id="Line"></path>
                        <path d="M0.5,42.6165972 L13.2021484,42.6165972" id="Line-2"></path>
                    </g>
                </g>
            </g>
        </g>
    </g>
</svg>