<?xml version="1.0" encoding="utf-8"?>
<!-- Generator: Adobe Illustrator 22.0.1, SVG Export Plug-In . SVG Version: 6.00 Build 0)  -->
<svg version="1.1" id="Calque_1" xmlns="http://www.w3.org/2000/svg" xmlns:xlink="http://www.w3.org/1999/xlink" x="0px" y="0px"
	 viewBox="0 0 906.7 144" style="enable-background:new 0 0 906.7 144;" xml:space="preserve">
<style type="text/css">
	.st0{clip-path:url(#SVGID_2_);fill:#FFFFFF;}
	.st1{fill:#FFFFFF;}
	.st2{clip-path:url(#SVGID_4_);fill:#FFFFFF;}
</style>
<g>
	<defs>
		<rect id="SVGID_1_" width="906.7" height="144"/>
	</defs>
	<clipPath id="SVGID_2_">
		<use xlink:href="#SVGID_1_"  style="overflow:visible;"/>
	</clipPath>
	<path class="st0" d="M550,3.4v109.9c0,9.4-6.8,17-15.1,17c-8.3,0-15.1-7.6-15.1-17V68.1h-12.1v45.2c0,16.9,12.2,30.7,27.2,30.7
		c15,0,27.2-13.7,27.2-30.7V3.4H550z"/>
	<path class="st0" d="M489.6,95.2V64.5c0-5.6,4.1-10.2,9.1-10.2c5,0,9.1,4.6,9.1,10.2v33.2h12.1V64.5c0-13.2-9.5-23.8-21.2-23.8
		s-21.2,10.7-21.2,23.8v30.7H489.6z"/>
	<path class="st0" d="M477.5,63.8v49.5c0,9.4-6.8,17-15.1,17c-8.3,0-15.1-7.6-15.1-17V3.4h-12.1v109.9c0,16.9,12.2,30.7,27.2,30.7
		s27.2-13.7,27.2-30.7V63.8H477.5z"/>
	<path class="st0" d="M12.1,140.2V30.7c0-9.4,6.8-17,15.1-17s15.1,7.6,15.1,17v51h12.1v-51C54.4,13.7,42.2,0,27.2,0S0,13.7,0,30.7
		v109.5H12.1z"/>
	<path class="st0" d="M72.5,37.3v51.1c0,5.6-4.1,10.2-9.1,10.2c-5,0-9.1-4.6-9.1-10.2V34.7H42.3v53.6c0,13.2,9.5,23.8,21.2,23.8
		s21.2-10.7,21.2-23.8V37.3H72.5z"/>
	<path class="st0" d="M877.7,98.6h-17c-1.7,0-3-1.5-3-3.4s1.4-3.4,3-3.4h17V78.1h-17c-8.3,0-15.1,7.6-15.1,17s6.8,17,15.1,17h17
		V98.6z"/>
	<path class="st0" d="M780.9,44.1v23.8c0,6.5-3.5,10.2-9.1,10.2h-11v13.6h11C784,91.7,793,82,793,67.9V44.1H780.9z"/>
	<path class="st0" d="M84.6,80.2V30.7c0-9.4,6.8-17,15.1-17s15.1,7.6,15.1,17v109.5h12.1V30.7C126.9,13.8,114.8,0,99.7,0
		S72.5,13.8,72.5,30.7v49.5H84.6z"/>
	<path class="st0" d="M178.3,34.8h18.1c15,0,27.2,13.7,27.2,30.7v47.7c0,16.9-12.2,30.7-27.2,30.7h-18.1c-15,0-27.2-13.7-27.2-30.7
		V65.4C151.1,48.5,163.3,34.8,178.3,34.8 M178.3,48.4c-8.3,0-15.1,7.6-15.1,17v47.7c0,9.4,6.8,17,15.1,17h18.1
		c8.3,0,15.1-7.6,15.1-17V65.4c0-9.4-6.8-17-15.1-17H178.3z"/>
	<path class="st0" d="M659.4,75.6v21.8c0,30.8-10.9,46.4-31,46.4h-14.8c-15,0-27.2-13.7-27.2-30.7v-6.8c0-16.9,12.2-30.7,27.2-30.7
		H659.4z M647.3,90.7v-1.5h-33.8c-8.3,0-15.1,7.6-15.1,17v6.8c0,9.4,6.8,17,15.1,17h14.8c12.8,0,19-8.9,19-32.7V90.7z"/>
	<path class="st0" d="M834.1,17.3v122.9H822V3.7h57.4c15,0,27.2,13.7,27.2,30.7v26.8c0,16.9-12.2,30.7-27.2,30.7h-12.7V78.1h12.7
		c8.3,0,15.1-7.6,15.1-17V34.3c0-9.4-6.8-17-15.1-17H834.1z"/>
	<path class="st0" d="M269,34.8h18.1c15,0,27.2,13.7,27.2,30.7v47.7c0,16.9-12.2,30.7-27.2,30.7H269c-15,0-27.2-13.7-27.2-30.7V65.4
		C241.8,48.5,254,34.8,269,34.8 M269,48.4c-8.3,0-15.1,7.6-15.1,17v47.7c0,9.4,6.8,17,15.1,17h18.1c8.3,0,15.1-7.6,15.1-17V65.4
		c0-9.4-6.8-17-15.1-17H269z"/>
	<path class="st0" d="M359.6,34.8h11.3C393.2,34.8,405,50,405,79v11.7c0,34.4-12.2,53-34,53h-11.3c-15,0-27.2-13.7-27.2-30.7V65.4
		C332.4,48.5,344.6,34.8,359.6,34.8 M359.6,48.4c-8.3,0-15.1,7.6-15.1,17v47.7c0,9.4,6.8,17,15.1,17H371c14.2,0,21.9-11.7,21.9-39.4
		V79c0-21.8-6.8-30.6-22-30.6H359.6z"/>
</g>
<rect x="392.9" y="3.2" class="st1" width="12.1" height="137"/>
<rect x="729.5" y="3.2" class="st1" width="12.1" height="137"/>
<g>
	<defs>
		<rect id="SVGID_3_" width="906.7" height="144"/>
	</defs>
	<clipPath id="SVGID_4_">
		<use xlink:href="#SVGID_3_"  style="overflow:visible;"/>
	</clipPath>
	<path class="st2" d="M596,54.3h36.2c8.5,0,15.1,6.4,15.1,13.6l-0.5,72.2l12.1,0.1l0.5-72.3c0-15.4-12.4-27.3-27.2-27.3H596V54.3z"
		/>
	<path class="st2" d="M713.7,126.6h-10.1c-8.3,0-15.1-7.6-15.1-17V3.4h-12.1v106.1c0,16.9,12.2,30.7,27.2,30.7h10.1V126.6z"/>
	<path class="st2" d="M735.5,91.8h36.5c8.3,0,15.1,8.1,15.1,18.2v30.2h12.1V110c0-17.5-12.1-31.9-27.2-31.9h-36.5V91.8z"/>
	<path class="st2" d="M867.3,112.2h8.2c11,0,16,6,16,19.8v8.2h12.1V132c0-21.1-10.2-33.4-28.1-33.4h-8.2V112.2z"/>
</g>
</svg>
