<?xml version="1.0" encoding="utf-8"?>
<!-- Generator: Adobe Illustrator 22.0.1, SVG Export Plug-In . SVG Version: 6.00 Build 0)  -->
<svg version="1.1" id="Calque_1" xmlns="http://www.w3.org/2000/svg" xmlns:xlink="http://www.w3.org/1999/xlink" x="0px" y="0px"
	 viewBox="0 0 105 105" style="enable-background:new 0 0 105 105;" xml:space="preserve">
<style type="text/css">
	.st0{clip-path:url(#SVGID_2_);fill:#2100B8;}
	.st1{clip-path:url(#SVGID_2_);fill:#26F2B2;}
</style>
<g>
	<defs>
		<rect id="SVGID_1_" width="105" height="105"/>
	</defs>
	<clipPath id="SVGID_2_">
		<use xlink:href="#SVGID_1_"  style="overflow:visible;"/>
	</clipPath>
	<path class="st0" d="M52.5,105c29,0,52.5-23.5,52.5-52.5S81.5,0,52.5,0S0,23.5,0,52.5S23.5,105,52.5,105"/>
	<path class="st1" d="M56.2,58.1c0,2.1-1.6,3.7-3.7,3.7s-3.7-1.7-3.7-3.7h-5.6c0,5,3.9,9.3,9.3,9.3s9.3-4.8,9.3-9.3H56.2z
		 M61.8,36.6h-5.6v21.5h5.6V36.6z M48.8,36.6h-5.6v21.5h5.6V36.6z M30.1,36.6h-5.6v43.9h5.6V36.6z M80.5,74.9h-5.6v5.6h5.6V74.9z
		 M80.5,36.6h-5.6V69h5.6V36.6z M30.1,36.6c0-3.6,2.9-6.5,6.5-6.5s6.5,2.9,6.5,6.5h5.6c0-6.5-6.1-12.1-12.1-12.1
		s-12.1,5.6-12.1,12.1H30.1z M61.8,36.6c0-3.6,2.9-6.5,6.5-6.5c3.6,0,6.5,2.9,6.5,6.5h5.6c0-6.5-6.1-12.1-12.1-12.1
		c-6.1,0-12.1,5.6-12.1,12.1H61.8z"/>
</g>
</svg>
