<?xml version="1.0" encoding="utf-8"?>
<!-- Generator: Adobe Illustrator 22.0.1, SVG Export Plug-In . SVG Version: 6.00 Build 0)  -->
<svg version="1.1" id="Calque_1" xmlns="http://www.w3.org/2000/svg" xmlns:xlink="http://www.w3.org/1999/xlink" x="0px" y="0px"
	 viewBox="0 0 218.1 143.3" style="enable-background:new 0 0 218.1 143.3;" xml:space="preserve">
<style type="text/css">
	.st0{clip-path:url(#SVGID_2_);fill:none;stroke:#46B946;stroke-width:8;}
	.st1{clip-path:url(#SVGID_2_);fill:none;stroke:#2100B8;}
</style>
<g>
	<defs>
		<rect id="SVGID_1_" y="-0.2" width="217.7" height="143.7"/>
	</defs>
	<clipPath id="SVGID_2_">
		<use xlink:href="#SVGID_1_"  style="overflow:visible;"/>
	</clipPath>
	<path class="st0" d="M199.2,36.5C180,16.7,150.9,9.4,125.1,20.3c-33.9,14.4-49.2,55-34.1,90.6"/>
	<path class="st1" d="M69.6,86.6C84.8,92,93,98.9,94.2,107.5 M87.6,48.4c9.7,16.1,13.2,30.3,10.4,42.8 M90.2,98.4
		c-0.4-10.1-3.7-17.2-9.7-21.3c-6-4.1-13.8-4.3-23.3-0.9c0.3,10,3.5,17.1,9.5,21.2C72.8,101.5,80.6,101.8,90.2,98.4z M94,63.1
		c2.9-7.6,2.7-14.1-0.4-19.5c-3.1-5.4-8.7-8.7-16.7-9.9C74,41.2,74.1,47.6,77.3,53C80.4,58.4,86,61.8,94,63.1z M138.2,61.6
		c-28.3,7.8-43,23.4-44,46.9 M103.1,83.6c14.5,5.4,26.8,5.1,37-0.7c10.2-5.9,16.5-16.4,18.9-31.4c-14.3-5.5-26.5-5.3-36.7,0.6
		C112.1,57.9,105.7,68.4,103.1,83.6z"/>
</g>
</svg>
