<?xml version="1.0" encoding="utf-8"?>
<!-- Generator: Adobe Illustrator 22.0.1, SVG Export Plug-In . SVG Version: 6.00 Build 0)  -->
<svg version="1.1" id="Calque_1" xmlns="http://www.w3.org/2000/svg" xmlns:xlink="http://www.w3.org/1999/xlink" x="0px" y="0px"
	 viewBox="0 0 218.1 143.3" style="enable-background:new 0 0 218.1 143.3;" xml:space="preserve">
<style type="text/css">
	.st0{clip-path:url(#SVGID_2_);fill:#9179CE;}
	.st1{clip-path:url(#SVGID_2_);fill:none;stroke:#2100B8;}
</style>
<g>
	<defs>
		<rect id="SVGID_1_" x="0.2" y="-0.2" width="217.7" height="143.7"/>
	</defs>
	<clipPath id="SVGID_2_">
		<use xlink:href="#SVGID_1_"  style="overflow:visible;"/>
	</clipPath>
	<path class="st0" d="M101.4,107.8c22.1,0,40-17.9,40-40s-17.9-40-40-40s-40,17.9-40,40S79.3,107.8,101.4,107.8"/>
	<path class="st1" d="M147.3,69.1l-3.8,2.1l0.7-4.6l-3.1-3.2l4.2-0.7l1.9-4.1l1.9,4.1l4.2,0.7l-3.1,3.2l0.7,4.6L147.3,69.1z
		 M127,40.5l-8.4,4.7l1.6-10l-6.8-7.1l9.4-1.5l4.2-9.1l4.2,9.1l9.4,1.5l-6.8,7.1l1.6,10L127,40.5z M101,108.9
		c11.9,0,22.7-4.2,31.2-11.2c0-0.1-30.3-0.6-43-27.3c-12.8-26.8,3-47.6,11.8-58.4c-27,0-48.9,21.7-48.9,48.4
		C52.2,87.2,74,108.9,101,108.9z"/>
</g>
</svg>
