<?xml version="1.0" encoding="utf-8"?>
<!-- Generator: Adobe Illustrator 22.0.1, SVG Export Plug-In . SVG Version: 6.00 Build 0)  -->
<svg version="1.1" id="Calque_1" xmlns="http://www.w3.org/2000/svg" xmlns:xlink="http://www.w3.org/1999/xlink" x="0px" y="0px"
	 viewBox="0 0 218.1 143.3" style="enable-background:new 0 0 218.1 143.3;" xml:space="preserve">
<style type="text/css">
	.st0{clip-path:url(#SVGID_2_);fill:#BDFAE7;}
	.st1{clip-path:url(#SVGID_2_);fill:#FFFFFF;}
	.st2{clip-path:url(#SVGID_2_);fill:none;stroke:#2100B7;stroke-width:0.96;}
	.st3{fill:none;stroke:#2100B7;stroke-width:1.92;stroke-linecap:round;}
	.st4{clip-path:url(#SVGID_4_);fill:#FFFFFF;}
	.st5{clip-path:url(#SVGID_4_);fill:none;stroke:#2100B7;stroke-width:0.96;stroke-linecap:square;}
	.st6{clip-path:url(#SVGID_4_);fill:none;stroke:#2100B7;stroke-width:0.96;}
	.st7{clip-path:url(#SVGID_6_);fill:none;stroke:#2100B7;stroke-width:0.96;stroke-linecap:square;}
</style>
<g>
	<defs>
		<rect id="SVGID_1_" x="0.2" y="0.1" width="217.7" height="143.7"/>
	</defs>
	<clipPath id="SVGID_2_">
		<use xlink:href="#SVGID_1_"  style="overflow:visible;"/>
	</clipPath>
	<path class="st0" d="M139.4,106.9c19.9,0,36.1-15.7,36.1-35.2s-16.1-35.2-36.1-35.2s-36.1,15.7-36.1,35.2S119.5,106.9,139.4,106.9"
		/>
	<path class="st1" d="M99.9,53.7c2.8,3.2,5.7,4.9,8.6,5c4.3,0.1,7.6-1.7,9.8-4.3l0.2-0.2v-0.3c0-3.7,1.6-4.5,5.6-2.8
		c6.6,4.7,12.4,7.8,17.2,9.3c3.3,1,7.6,1.9,13,2.6c0.1,0,0.2,0,0.3,0.1c3.8,0.7,6.3,4.2,5.5,7.8l-0.7,3.5c-0.5,2.7-2.7,4.7-5.4,5.3
		c-4.2,0.8-8.8,1.3-13.7,1.3c-6,0-19.2-0.6-39.6-1.9c-0.8-0.1-1.7-0.3-2.4-0.7c-2.9-1.5-4-4.9-2.5-7.7l0.2-0.4l-0.2-0.4
		c-0.3-0.7-0.6-2.4-0.6-5c0-1.9,0.4-4.3,1.3-7.2C97,55.9,98.2,54.5,99.9,53.7"/>
	<path class="st2" d="M99.9,53.7c2.8,3.2,5.7,4.9,8.6,5c4.3,0.1,7.6-1.7,9.8-4.3l0.2-0.2v-0.3c0-3.7,1.6-4.5,5.6-2.8
		c6.6,4.7,12.4,7.8,17.2,9.3c3.3,1,7.6,1.9,13,2.6c0.1,0,0.2,0,0.3,0.1c3.8,0.7,6.3,4.2,5.5,7.8l-0.7,3.5c-0.5,2.7-2.7,4.7-5.4,5.3
		c-4.2,0.8-8.8,1.3-13.7,1.3c-6,0-19.2-0.6-39.6-1.9c-0.8-0.1-1.7-0.3-2.4-0.7c-2.9-1.5-4-4.9-2.5-7.7l0.2-0.4l-0.2-0.4
		c-0.3-0.7-0.6-2.4-0.6-5c0-1.9,0.4-4.3,1.3-7.2C97,55.9,98.2,54.5,99.9,53.7z"/>
</g>
<path class="st3" d="M129.9,52l-7.1,7.7 M137.1,57.5l-3.7,6.3"/>
<g>
	<defs>
		<rect id="SVGID_3_" x="0.2" y="0.1" width="217.7" height="143.7"/>
	</defs>
	<clipPath id="SVGID_4_">
		<use xlink:href="#SVGID_3_"  style="overflow:visible;"/>
	</clipPath>
	<path class="st4" d="M159.5,69.7c-4.3,2.2-10.2,3.4-17.7,3.7c-11.3,0.4-24.3-2.4-30.9-2.9c-4.4-0.3-9.2-0.3-14.3,0"/>
	<path class="st5" d="M159.5,69.7c-4.3,2.2-10.2,3.4-17.7,3.7c-11.3,0.4-24.3-2.4-30.9-2.9c-4.4-0.3-9.2-0.3-14.3,0"/>
	<path class="st4" d="M63.2,66.2c2.8,3.2,5.7,4.9,8.6,5c4.3,0.1,7.6-1.7,9.8-4.3l0.2-0.2v-0.3c0-3.7,1.6-4.5,5.6-2.8
		c6.6,4.7,12.4,7.8,17.2,9.3c3.3,1,7.6,1.9,13,2.6c0.1,0,0.2,0,0.3,0.1c3.8,0.7,6.3,4.2,5.5,7.8l-0.7,3.5c-0.5,2.7-2.7,4.7-5.4,5.3
		c-4.2,0.8-8.8,1.3-13.7,1.3c-6,0-19.2-0.6-39.6-1.9c-0.8-0.1-1.7-0.3-2.4-0.7c-2.9-1.5-4-4.9-2.5-7.7l0.2-0.4l-0.2-0.4
		c-0.3-0.7-0.6-2.4-0.6-5c0-1.9,0.4-4.3,1.3-7.2C60.3,68.5,61.5,67.1,63.2,66.2"/>
	<path class="st6" d="M63.2,66.2c2.8,3.2,5.7,4.9,8.6,5c4.3,0.1,7.6-1.7,9.8-4.3l0.2-0.2v-0.3c0-3.7,1.6-4.5,5.6-2.8
		c6.6,4.7,12.4,7.8,17.2,9.3c3.3,1,7.6,1.9,13,2.6c0.1,0,0.2,0,0.3,0.1c3.8,0.7,6.3,4.2,5.5,7.8l-0.7,3.5c-0.5,2.7-2.7,4.7-5.4,5.3
		c-4.2,0.8-8.8,1.3-13.7,1.3c-6,0-19.2-0.6-39.6-1.9c-0.8-0.1-1.7-0.3-2.4-0.7c-2.9-1.5-4-4.9-2.5-7.7l0.2-0.4l-0.2-0.4
		c-0.3-0.7-0.6-2.4-0.6-5c0-1.9,0.4-4.3,1.3-7.2C60.3,68.5,61.5,67.1,63.2,66.2z"/>
</g>
<path class="st3" d="M93.3,64.5l-7.1,7.7 M100.4,70l-3.7,6.3"/>
<g>
	<defs>
		<rect id="SVGID_5_" x="0.2" y="0.1" width="217.7" height="143.7"/>
	</defs>
	<clipPath id="SVGID_6_">
		<use xlink:href="#SVGID_5_"  style="overflow:visible;"/>
	</clipPath>
	<path class="st7" d="M122.9,82.2c-4.3,2.2-10.2,3.4-17.7,3.7c-11.3,0.4-24.3-2.4-30.9-2.9c-4.4-0.3-9.2-0.3-14.3,0"/>
</g>
</svg>
