<?xml version="1.0" encoding="utf-8"?>
<!-- Generator: Adobe Illustrator 22.0.1, SVG Export Plug-In . SVG Version: 6.00 Build 0)  -->
<svg version="1.1" id="Calque_1" xmlns="http://www.w3.org/2000/svg" xmlns:xlink="http://www.w3.org/1999/xlink" x="0px" y="0px"
	 viewBox="0 0 218.1 143.3" style="enable-background:new 0 0 218.1 143.3;" xml:space="preserve">
<style type="text/css">
	.st0{clip-path:url(#SVGID_2_);fill:none;stroke:#FF4200;stroke-width:8;}
	.st1{clip-path:url(#SVGID_2_);fill:none;stroke:#2100B8;}
	.st2{clip-path:url(#SVGID_2_);fill:none;stroke:#2100B8;stroke-linecap:square;}
</style>
<g>
	<defs>
		<rect id="SVGID_1_" x="0.5" y="0" width="217.7" height="143.7"/>
	</defs>
	<clipPath id="SVGID_2_">
		<use xlink:href="#SVGID_1_"  style="overflow:visible;"/>
	</clipPath>
	<path class="st0" d="M74.5,109.3c6.8,12.2,19.9,20.5,34.9,20.5c22.1,0,40-17.9,40-40c0-10.6-4.1-20.2-10.9-27.4"/>
	<path class="st1" d="M60.2,94.1c2.3,3.4-9.2,13.2-7.7,14.6c1.6,1.4,14.2-4.1,21.9-11.2c8.7-7.9,9.7-18.3,6.4-21.6
		c-3.3-3.3-12.3-3.8-22.1,4.9C49.1,89.6,57.5,90.1,60.2,94.1z M124.6,58.9c2.3,11.2,0.6,20-5.1,26.2c-5.7,6.3-12.1,10.2-19.3,11.8
		l-4.8-4.3c6.4-10.3,9.6-17.3,9.7-21.2 M96.6,32.1c-10.4-2.2-18.7-0.5-25,5.2c-6.3,5.6-10.2,12.1-11.8,19.2l4.3,4.8
		c10.3-6.4,17.3-9.6,21.2-9.7 M134,20.8c3.6,3.6,3.6,9.3,0,12.9c-3.6,3.6-9.3,3.6-12.9,0c-3.6-3.6-3.6-9.3,0-12.9
		C124.6,17.2,130.4,17.2,134,20.8z M101.3,73c9.1-3.4,23-13.9,33-23.8c12.6-12.6,19.3-28.8,19.9-48.7c-19.9,0.6-36.1,7.2-48.8,19.9
		c-9.9,9.9-18.7,27-22.2,36.1C80.2,64.7,93.1,76.1,101.3,73z"/>
	<path class="st2" d="M86.5,47.6c2.7,5.1,5.7,9.4,9,12.7c3.3,3.3,8.1,6.5,14.4,9.6"/>
</g>
</svg>
